<?xml version="1.0" encoding="UTF-8" standalone="no"?>
<!-- Created with Inkscape (http://www.inkscape.org/) -->

<svg
   xmlns:dc="http://purl.org/dc/elements/1.1/"
   xmlns:cc="http://creativecommons.org/ns#"
   xmlns:rdf="http://www.w3.org/1999/02/22-rdf-syntax-ns#"
   xmlns:svg="http://www.w3.org/2000/svg"
   xmlns="http://www.w3.org/2000/svg"
   xmlns:sodipodi="http://sodipodi.sourceforge.net/DTD/sodipodi-0.dtd"
   xmlns:inkscape="http://www.inkscape.org/namespaces/inkscape"
   width="1000"
   height="1000"
   id="svg2"
   version="1.1"
   inkscape:version="0.48.1 r9760"
   sodipodi:docname="Nieuw document 1">
  <defs
     id="defs4" />
  <sodipodi:namedview
     id="base"
     pagecolor="#ffffff"
     bordercolor="#666666"
     borderopacity="1.0"
     inkscape:pageopacity="0.0"
     inkscape:pageshadow="2"
     inkscape:zoom="0.98994949"
     inkscape:cx="435.23908"
     inkscape:cy="551.97588"
     inkscape:document-units="px"
     inkscape:current-layer="layer1"
     showgrid="false"
     inkscape:window-width="1366"
     inkscape:window-height="744"
     inkscape:window-x="0"
     inkscape:window-y="24"
     inkscape:window-maximized="1" />
  <metadata
     id="metadata7">
    <rdf:RDF>
      <cc:Work
         rdf:about="">
        <dc:format>image/svg+xml</dc:format>
        <dc:type
           rdf:resource="http://purl.org/dc/dcmitype/StillImage" />
        <dc:title></dc:title>
      </cc:Work>
    </rdf:RDF>
  </metadata>
  <g
     inkscape:label="Laag 1"
     inkscape:groupmode="layer"
     id="layer1"
     transform="translate(0,-52.362183)">
    <path
       style="fill:#000000"
       d="m 323.66367,681.69555 c -26.90406,-9.16529 -65.22024,-30.91244 -81.78927,-46.42122 -2.22886,-2.08623 -4.98588,-4.0894 -6.12671,-4.45149 -2.59311,-0.82302 -4.19559,-8.44551 -2.11911,-10.07992 0.71406,-0.56205 1.39795,-2.71475 1.51977,-4.78379 0.20093,-3.41304 0.0155,-3.71642 -2,-3.27152 -2.27861,0.503 -22.17627,2.88012 -75.72148,9.04624 -16.775,1.93177 -38.15,4.4805 -47.5,5.66386 -21.450115,2.71476 -24.026106,2.62102 -31.216796,-1.13604 -9.807265,-5.12418 -14.669792,-8.12514 -17.525528,-10.81607 -2.534387,-2.38812 -2.621431,-2.71765 -1.147945,-4.34583 1.964377,-2.17061 6.863632,-3.35084 107.390269,-25.87029 16.775,-3.75784 39.725,-8.92936 51,-11.49226 11.275,-2.5629 23.2,-5.25851 26.5,-5.99023 3.3,-0.73173 15.225,-3.4344 26.5,-6.00595 11.275,-2.57154 22.525,-5.06782 25,-5.54728 2.475,-0.47946 10.575,-2.24729 18,-3.92852 60.00436,-13.58663 67.6529,-15.57437 71.105,-18.47912 11.93872,-10.04577 20.26918,-18.4962 22.018,-22.33509 2.26208,-4.96559 1.97536,-5.81095 -2.40913,-7.10315 -4.93353,-1.45401 -35.41679,-12.31243 -51.71387,-18.42096 -31.79838,-11.91877 -82.56331,-35.61097 -102,-47.60382 -19.32707,-11.9252 -17.35694,-11.3509 -33.13991,-9.66052 -7.89805,0.84588 -22.68509,2.42923 -32.86009,3.51855 -10.175,1.08931 -22.1,2.43537 -26.5,2.99124 -28.64071,3.6183 -51.89627,5.7915 -54.29378,5.07366 -5.231022,-1.56621 -20.206218,-8.94491 -20.206218,-9.95617 0,-1.6426 3.960951,-3.63328 12,-6.03093 4.124998,-1.23028 8.174998,-2.468 8.999998,-2.75049 0.825,-0.2825 13.875,-4.78139 29,-9.99755 15.125,-5.21615 34.05845,-11.73185 42.07434,-14.47933 15.87834,-5.44237 14.98294,-4.5905 18.45765,-17.56054 0.57109,-2.13171 1.0987,-2.25 10.0354,-2.25 5.18793,0 9.43261,-0.14779 9.43261,-0.32841 0,-0.72363 -13.35206,-30.00926 -21.61412,-47.40718 -2.41224,-5.07958 -4.38588,-9.52294 -4.38588,-9.87414 0,-0.72763 -5.20569,-12.47683 -11.63221,-26.2538 -2.40229,-5.14994 -4.36779,-9.54664 -4.36779,-9.77046 0,-0.89116 -13.31179,-29.92913 -14.12689,-30.81601 -1.00425,-1.09269 -1.18596,-4.55 -0.23913,-4.55 0.34869,0 2.26119,0.42848 4.25,0.95217 1.98881,0.52369 7.44102,1.91906 12.11602,3.10081 4.675,1.18175 11.8829,3.44565 16.01755,5.03088 7.01124,2.68811 8.06486,3.50636 15.6439,12.14918 13.54623,15.44756 26.60482,30.59539 30.98651,35.944 2.28137,2.78483 5.09387,6.00924 6.25,7.16536 2.10204,2.10204 2.10204,2.10204 2.11735,-2.37018 0.0248,-7.22878 0.44999,-7.43195 10.2019,-4.87426 4.68351,1.22837 9.32013,2.82178 10.3036,3.54091 0.98347,0.71913 2.12306,3.23208 2.53242,5.58432 0.40936,2.35225 2.10116,10.12681 3.75954,17.27681 1.65839,7.15 3.24138,14.47325 3.51777,16.27388 0.50634,3.29879 2.15549,5.35305 29.0697,36.21071 9.2057,10.55451 11.5376,12.67141 15,13.61705 16.83314,4.5974 43.55532,13.1704 97.54201,31.29336 49.08586,16.47778 62.6685,20.6902 63.5,19.69341 0.58176,-0.69742 6.90775,-6.38467 14.05775,-12.63835 22.53935,-19.71383 22.31063,-19.45309 24.52599,-27.95911 4.24326,-16.29226 30.9328,-125.23271 37.60406,-153.49095 1.94767,-8.25 3.70638,-15.16619 3.90824,-15.36932 0.49664,-0.49976 13.55401,2.65622 20.96171,5.06646 7.68631,2.5009 9.93129,3.98475 11.30979,7.4754 1.09759,2.77932 14.19021,69.26931 14.19021,72.06404 0,0.78655 -0.53322,1.25235 -1.18492,1.03511 -1.34086,-0.44695 -2.19852,-4.07322 -6.80494,-28.77169 -7.56936,-40.58504 -8.45708,-44.15433 -11.35998,-45.67531 -2.57712,-1.3503 -2.65016,-1.30857 -2.65016,1.51408 0,1.59646 0.64888,9.37333 1.44195,17.28194 0.79307,7.90861 2.14769,21.80429 3.01026,30.87929 2.47772,26.06765 1.58784,23.62752 9.09327,24.93454 10.46239,1.82194 23.22364,5.88059 32.9016,10.46418 4.99613,2.36622 10.65191,4.80542 12.5684,5.42046 43.52103,13.96663 45.28242,14.62634 47.20629,17.68082 3.69717,5.86988 1.22183,14.83984 -5.47494,19.8397 -2.45139,1.83022 -3.15877,1.87987 -10.43821,0.73255 -21.71099,-3.42189 -38.40614,-7.07264 -58.45359,-12.7821 -1.89291,-0.53909 -2.44058,-4.05495 6.12478,39.31922 5.35345,27.10936 5.35345,27.10936 8.93682,28.36771 1.97085,0.69209 8.94062,3.94482 15.48837,7.22828 6.54775,3.28345 16.30884,7.50279 21.69131,9.37631 19.29099,6.71475 46.30752,19.09787 49.15369,22.52976 5.11768,6.17086 -1.92186,20.88857 -9.99109,20.88857 -4.03852,0 -38.45931,-9.19375 -54.57781,-14.57767 -9.2504,-3.08982 -17.04899,-5.38777 -17.33022,-5.10655 -0.48715,0.48716 2.73916,18.09469 4.73648,25.84933 0.94401,3.66511 0.94401,3.66511 74.17833,27.86383 40.27887,13.30929 78.18431,25.8658 84.23431,27.90336 6.05,2.03755 21.575,7.21529 34.5,11.50608 25.37436,8.42368 36.48504,12.94636 44.8187,18.24377 6.88328,4.37545 43.82778,41.28796 52.40452,52.35915 10.18424,13.14622 13.77678,19.03004 13.77678,22.56345 0,1.7327 -0.5625,3.5975 -1.25,4.144 -3.08246,2.45029 -17.37445,4.4858 -30.49476,4.34315 -20.54687,-0.22339 -39.28389,-4.04603 -68.76052,-14.02822 -9.89709,-3.35163 -22.04472,-7.41102 -26.99472,-9.02087 -4.95,-1.60985 -15.525,-5.25417 -23.5,-8.09849 -17.38703,-6.20115 -58.12365,-20.24999 -100.4302,-34.63535 -17.01161,-5.7844 -31.63661,-10.85862 -32.5,-11.27605 -0.86339,-0.41742 -5.8448,-2.14122 -11.0698,-3.83067 -5.225,-1.68944 -19.4,-6.51662 -31.5,-10.72706 -22,-7.65535 -22,-7.65535 -30,-6.59675 -4.4,0.58223 -15.875,1.96577 -25.5,3.07453 -66.95865,7.71337 -94.29251,11.04182 -94.81901,11.54615 -0.76089,0.72883 34.51888,28.3055 38.31901,29.95231 7.75505,3.36072 21.81899,10.34563 29.65589,14.72872 6.8994,3.85876 8.88019,5.48459 9.76126,8.01202 2.02822,5.81818 -1.10692,14.73648 -6.39958,18.20436 -3.0487,1.99759 -11.52127,2.09802 -18.72396,0.22196 -7.08182,-1.84458 -25.18675,-7.30982 -30.79361,-9.29551 -13.8267,-4.89678 -47.65979,-24.44912 -57,-32.94064 -1.375,-1.25006 -4.27011,-2.85998 -6.43357,-3.57759 -3.01716,-1.00078 -4.11549,-1.98978 -4.71444,-4.24514 -0.47625,-1.79336 -0.36108,-3.4462 0.29524,-4.23701 0.59186,-0.71315 0.80126,-2.39171 0.46533,-3.73015 -0.81879,-3.26231 0.19595,-5.59245 2.43541,-5.59245 1.84536,0 3.57645,-1.70891 2.65972,-2.62564 -0.27092,-0.27092 -8.52848,0.44711 -18.35013,1.59562 -9.82166,1.14851 -23.70756,2.74945 -30.85756,3.55766 -7.15,0.8082 -18.625,2.1498 -25.5,2.98133 -6.875,0.83152 -18.35,2.17716 -25.5,2.9903 -29.341,3.33683 -54.86711,6.5345 -55.25435,6.92174 -0.22677,0.22678 0.44757,1.23732 1.49855,2.24566 1.05098,1.00833 5.94623,5.70462 10.87835,10.4362 6.80586,6.52915 11.36713,9.88079 18.92246,13.90431 13.40692,7.13975 33.98003,19.99075 39.20499,24.48943 4.03635,3.47529 4.25,3.9343 4.25,9.13097 0,5.91257 -1.94368,10.84623 -5.35796,13.60018 -3.042,2.45367 -9.80394,2.17694 -18.40524,-0.75323 z m 17.54641,-1.03523 c 4.98568,-3.49212 6.64769,-11.20839 3.54536,-16.46022 -2.32327,-3.93298 -38.0755,-26.97908 -41.85361,-26.97908 -0.50673,0 2.19187,3.13724 5.99689,6.97163 3.80502,3.8344 6.58098,7.30887 6.16881,7.72104 -0.41217,0.41218 -1.06244,0.31244 -1.44503,-0.22163 -0.3826,-0.53407 -7.89563,-4.49889 -16.69563,-8.8107 -8.8,-4.31181 -19.5504,-9.87269 -23.88979,-12.3575 -12.83675,-7.35058 -24.41958,-7.00025 -26.13067,0.79033 -0.81825,3.72543 -0.94317,3.58855 11.21302,12.28696 17.50501,12.52578 43.83785,26.22747 63.80744,33.20075 4.4,1.53646 8.35986,3.38431 8.79969,4.10634 1.10177,1.80868 7.77254,1.65092 10.48352,-0.24792 z m -8.42447,-0.94683 c -1.20669,-3.14458 0.71,-8.34564 4.20704,-11.41608 1.9271,-1.69201 4.15458,-3.07639 4.94996,-3.07639 2.24484,0 2.95954,4.89871 1.37667,9.43599 -1.30628,3.74445 -1.67232,4.03932 -4.65509,3.75004 -2.40364,-0.23312 -3.23732,0.0888 -3.23732,1.25 0,1.99767 -1.88092,2.03786 -2.64126,0.0564 z m 572.84634,-23.5108 c -0.37723,-6.51647 -0.20578,-7.93163 0.91537,-7.55548 1.1065,0.37123 12.55146,3.7116 28.25478,8.24653 1.10409,0.31885 1.622,0.13182 1.25945,-0.45481 -0.33868,-0.54799 -1.85753,-1.30627 -3.37523,-1.68505 -2.46778,-0.6159 -11.1751,-4.16218 -19.91058,-8.1091 -1.73312,-0.78307 -3.64562,-1.42376 -4.25,-1.42376 -4.06532,0 3.34804,-10.93187 9.41435,-13.88256 3.63555,-1.76836 3.63555,-1.76836 -14.18884,-19.7366 -22.57615,-22.75835 -27.0262,-25.77485 -50.09313,-33.95602 -30.70169,-10.889 -395.0599,-131.8508 -462.23125,-153.45427 -17.325,-5.57202 -40.2448,-13.01256 -50.93288,-16.53454 -10.68808,-3.52197 -19.65884,-6.17762 -19.93502,-5.90144 -0.27618,0.27618 1.15611,2.20036 3.18288,4.27595 4.49697,4.60532 4.83909,6.69641 0.93502,5.715 -1.5125,-0.38022 -10.85,-2.2043 -20.75,-4.05353 -25.9333,-4.84409 -48.66725,-10.05092 -69.5,-15.91781 -3.025,-0.85189 -7.5788,-2.06382 -10.11955,-2.69317 -4.03105,-0.99851 -4.88929,-1.6995 -6.737,-5.50265 -2.11746,-4.35836 -2.11746,-4.35836 -9.06535,-4.35836 -9.63197,0 -11.55931,0.91457 -12.87832,6.11107 -1.26648,4.98952 -0.76908,6.27107 2.13881,5.51064 2.56138,-0.66982 18.19564,1.75384 25.7118,3.9859 12.19281,3.62087 29.61244,14.41235 34.38789,21.30333 4.28092,6.17737 5.88145,11.65973 4.33168,14.83743 -0.69848,1.43217 -1.94496,2.81542 -2.76996,3.07389 -1.1799,0.36965 -1.12655,0.0485 0.25,-1.5049 7.78567,-8.78597 -12.81875,-29.14795 -36.40908,-35.98068 -8.85007,-2.56334 -23.77267,-5.73827 -24.33371,-5.17723 -0.37425,0.37426 1.13266,1.18718 31.49279,16.98909 23.00166,11.97195 22.07501,11.23184 22.55424,18.01397 0.65621,9.28694 1.15179,9.88757 14.10898,17.09959 26.67178,14.84562 67.61188,32.40698 105.53658,45.27017 24.36645,8.26455 31.8002,10.49958 31.8002,9.56102 0,-0.33755 -1.17053,-1.87609 -2.60119,-3.41899 -1.43065,-1.54289 -2.44315,-2.95874 -2.25,-3.14633 0.19316,-0.18758 5.97619,1.13292 12.85119,2.93445 15.95807,4.18167 53.23731,14.05735 63,16.68939 23.55269,6.34985 55.07838,14.50237 73,18.87774 11.275,2.75267 22.75,5.72371 25.5,6.60232 17.3614,5.54683 40.5,22.78931 40.5,30.17988 0,1.5433 0.5625,3.50158 1.25,4.35175 0.6875,0.85016 10.925,4.82023 22.75,8.82237 11.825,4.00214 22.85,7.84214 24.5,8.53334 1.65,0.69119 9.075,3.28596 16.5,5.76615 7.425,2.4802 25.425,8.63192 40,13.6705 14.575,5.03858 37.75,12.94738 51.5,17.57511 13.75,4.62773 34.225,11.61192 45.5,15.52042 29.78425,10.32476 40.27536,13.70229 51.5,16.58005 12.09374,3.10058 28.50411,6.11524 34.08463,6.2615 4.08462,0.10706 4.08462,0.10706 3.62045,-7.91127 z m -32.20508,-34.6701 c -8.46331,-0.63759 -8.56244,-0.70769 -8.15978,-5.7705 0.35801,-4.50142 0.39335,-4.54107 4.04702,-4.54107 3.25607,0 4.11884,0.57998 7.39931,4.97403 4.05009,5.42494 4.34,6.11354 2.46345,5.85126 -0.6875,-0.0961 -3.275,-0.32726 -5.75,-0.51372 z m -17,-1.97771 c -7.63061,-1.20189 -7.46898,-0.92494 -3.42212,-5.8636 3.54746,-4.32921 6.32505,-5.45535 9.101,-3.68989 1.53613,0.97696 -0.31829,10.2805 -2.00986,10.08345 -0.64296,-0.0749 -2.29402,-0.31338 -3.66902,-0.52996 z m 27.74643,-0.65254 c -0.79639,-0.64973 -2.68522,-2.85792 -4.19742,-4.9071 -2.74944,-3.72578 -2.74944,-3.72578 -0.20019,-4.88729 2.30836,-1.05176 2.81392,-0.84936 5.35021,2.14199 4.30625,5.07887 5.39077,6.80282 4.56169,7.25124 -2.42798,1.31323 -4.2352,1.4447 -5.51429,0.40116 z m 5.77551,-8.65885 c -3.6363,-3.72391 -3.79787,-4.13837 -2.53397,-6.5 1.9075,-3.56418 3.29661,-3.1774 7.89054,2.19705 3.75601,4.39416 3.92305,4.84228 2.42282,6.5 -2.32358,2.56753 -3.43279,2.25427 -7.77939,-2.19705 z M 731.59679,581.3472 c -0.75546,-0.47892 -1.18747,-2.09236 -1,-3.73469 0.26593,-2.32957 0.81592,-2.89149 2.83008,-2.89149 2.16705,0 2.54133,0.49943 2.81037,3.75 0.25416,3.07098 -0.0175,3.74723 -1.5,3.73469 -0.99571,-0.008 -2.4089,-0.39475 -3.14045,-0.85851 z m -9.41992,-2.81551 c -1.2753,-0.33327 -1.75,-1.47725 -1.75,-4.21733 0,-4.50983 0.65338,-5.34922 3.13148,-4.02297 1.34236,0.71841 1.86852,2.11645 1.86852,4.96481 0,2.18065 -0.3375,3.91262 -0.75,3.84882 -0.4125,-0.0638 -1.5375,-0.3218 -2.5,-0.57333 z m -9,-3.06275 c -2.25669,-0.50881 -2.35318,-5.50243 -0.14179,-7.33773 1.3664,-1.13401 1.81748,-1.0485 3,0.56869 2.66496,3.64454 0.98021,7.63449 -2.85821,6.76904 z m -8.95561,-5.19546 c -0.57129,-3.89245 0.692,-5.99953 3.20325,-5.34283 1.5695,0.41044 2.00236,1.36311 2.00236,4.407 0,3.42634 -0.28086,3.88337 -2.3865,3.88337 -1.87772,0 -2.47873,-0.62839 -2.81911,-2.94754 z m -8.18651,-1.63192 c -1.18296,-3.08275 0.43753,-6.42054 3.11716,-6.42054 2.11311,0 2.41324,0.35443 1.90525,2.25 -0.33164,1.2375 -0.60913,3.0375 -0.61664,4 -0.0172,2.20829 -3.57102,2.34585 -4.40577,0.17054 z m -9.21384,-2.83607 c -0.29875,-0.77854 -0.39713,-2.69104 -0.21861,-4.25 0.23584,-2.05961 0.87131,-2.83447 2.32457,-2.83447 1.63804,0 2.05565,0.76917 2.3075,4.25 0.27072,3.74175 0.0577,4.25 -1.78139,4.25 -1.14888,0 -2.33331,-0.63699 -2.63207,-1.41553 z m -9.21822,-2.44059 c -0.7947,-0.51229 -1.19456,-2.21118 -1,-4.24874 0.27388,-2.86837 0.71207,-3.39514 2.82418,-3.39514 2.24857,0 2.5,0.40091 2.5,3.9863 0,4.10831 -1.56781,5.43443 -4.32418,3.65758 z m -8.92582,-2.80616 c -0.70659,-0.28512 -1.25,-2.2373 -1.25,-4.4906 0,-3.56187 0.23952,-3.9522 2.25,-3.66667 1.87042,0.26564 2.30187,1.03653 2.5575,4.56955 0.30692,4.24201 -0.33404,4.88841 -3.5575,3.58772 z m -9.52136,-3.4697 c -2.18415,-1.22232 -2.44636,-7.86802 -0.31043,-7.86802 3.28756,0 4.17249,1.06598 3.76716,4.53792 -0.47362,4.05688 -1.09256,4.65315 -3.45673,3.3301 z m -11.06197,-3.53469 c -0.81382,-0.81381 -0.87253,-4.63328 -0.10209,-6.64103 0.33653,-0.87697 1.34639,-1.26684 2.5,-0.96516 2.75219,0.71971 2.84539,8.27286 0.10209,8.27286 -1.00834,0 -2.13334,-0.3 -2.5,-0.66667 z m -8.41667,-2.36449 c -1.72786,-0.69452 -2.25,-1.71039 -2.25,-4.3776 0,-6.68966 4.62192,-5.81287 5.16212,0.97926 0.19376,2.43623 0.12405,4.40098 -0.15491,4.36611 -0.27897,-0.0349 -1.51971,-0.47036 -2.75721,-0.96777 z m -11.07418,-3.83902 c -1.91177,-1.21209 -1.12405,-7.5286 0.98874,-7.9285 2.03809,-0.38576 3.15533,2.67594 2.26743,6.21364 -0.69543,2.77082 -1.18446,3.02836 -3.25617,1.71486 z m -8.50915,-2.79649 c -0.99617,-0.99616 -0.80445,-7.13014 0.24309,-7.77756 2.20159,-1.36066 4.09024,0.74084 4.09024,4.55122 0,3.10837 -0.36951,3.89301 -1.83333,3.89301 -1.00834,0 -2.13334,-0.3 -2.5,-0.66667 z m -10.09866,-4.91837 c -0.71237,-2.83831 0.078,-6.41496 1.41759,-6.41496 3.54423,0 5.02063,3.21423 3.40741,7.41821 -0.97563,2.54245 -4.09803,1.89321 -4.825,-1.00325 z m -8.90134,-1.08163 c -0.36667,-0.36666 -0.66667,-2.42296 -0.66667,-4.56955 0,-3.47545 0.24641,-3.86789 2.25,-3.58333 1.87042,0.26564 2.30187,1.03653 2.5575,4.56955 0.26119,3.60996 0.0227,4.25 -1.58334,4.25 -1.03995,0 -2.19083,-0.3 -2.55749,-0.66667 z m -11.66667,-7.16666 c 0,-4.48929 0.43856,-5.12625 3.0579,-4.44128 3.33386,0.87183 2.2917,8.27461 -1.16489,8.27461 -1.52813,0 -1.89301,-0.73888 -1.89301,-3.83333 z m -8.57124,-1.5945 c -0.65184,-2.59712 0.22365,-6.57217 1.4475,-6.57217 2.49383,0 4.13697,2.68387 3.52289,5.75424 -0.79893,3.99464 -4.03926,4.52787 -4.97039,0.81793 z m -8.98257,-4.00728 c -0.70436,-3.75458 -0.055,-5.56489 1.99625,-5.56489 1.45058,0 2.28837,3.2186 1.75701,6.75 -0.52333,3.47803 -3.02674,2.68757 -3.75326,-1.18511 z m -7.77952,-0.23156 c -0.36667,-0.36666 -0.66667,-2.39166 -0.66667,-4.5 0,-3.74763 1.15672,-4.74945 3.5424,-3.06802 1.52012,1.07139 1.68228,6.23164 0.1964,6.25 -0.81098,0.01 -0.72077,0.35009 0.2612,0.98469 1.2323,0.79638 1.1282,0.97211 -0.58333,0.98469 -1.14584,0.008 -2.38334,-0.28469 -2.75,-0.65136 z m -8.28335,-2.1377 c -1.37134,-0.90101 -2.39952,-4.98984 -1.70793,-6.79208 0.29622,-0.77195 1.34762,-1.40355 2.33644,-1.40355 1.53355,0 1.71811,0.62481 1.25543,4.25 -0.64064,5.01949 -0.54724,4.82387 -1.88394,3.94563 z m -9.63332,-2.88496 c -1.14941,-0.30037 -1.75,-1.43367 -1.75,-3.30221 0,-4.67845 0.90719,-6.1285 3.09996,-4.95496 1.37625,0.73655 1.90004,2.10985 1.90004,4.98168 0,2.18065 -0.3375,3.91262 -0.75,3.84882 -0.4125,-0.0638 -1.5375,-0.3218 -2.5,-0.57333 z m -9.55,-3.51067 c -2.56508,-2.56508 -0.61914,-8.2818 2.42186,-7.11487 1.82446,0.70011 1.89602,8.31487 0.0781,8.31487 -0.715,0 -1.84,-0.54 -2.5,-1.2 z m -8.2,-4.71821 c 0,-4.38607 0.87837,-5.92636 3.05499,-5.35716 1.86839,0.4886 1.95109,1.96744 0.39287,7.02537 -0.79683,2.5865 -3.44786,1.30383 -3.44786,-1.66821 z m -6.60596,-0.49732 c -0.98591,-2.56924 0.0376,-7.08447 1.60596,-7.08447 1.0979,0 1.50024,1.13929 1.5009,4.25 8.8e-4,4.21221 -1.9094,5.95501 -3.10686,2.83447 z m -5.21822,-1.46098 c -1.63981,-1.03182 -1.18326,-7.30289 0.57365,-7.87964 1.80629,-0.59295 2.64838,2.40034 1.62908,5.79068 -0.62514,2.07928 -1.26051,2.68183 -2.20273,2.08896 z m -10.98619,-6.86517 c 0.21691,-2.61495 0.83735,-3.84155 2.06037,-4.07333 1.43453,-0.27185 1.75,0.40266 1.75,3.74169 0,3.44643 -0.31709,4.07332 -2.06037,4.07332 -1.76868,0 -2.01642,-0.5297 -1.75,-3.74168 z m -7.69325,0.97637 c -1.35258,-0.99015 -1.72638,-5.40157 -0.60419,-7.13041 1.78267,-2.74636 4.08238,-0.43845 3.8378,3.85147 -0.22223,3.8978 -1.13032,4.81862 -3.23361,3.27894 z m -7.32641,-2.29546 c -2.0082,-0.80499 -2.23378,-1.38325 -1.63318,-4.18661 0.85381,-3.9853 0.99255,-4.14721 2.92008,-3.40754 1.03773,0.39821 1.54313,1.9125 1.54313,4.62354 0,2.21726 -0.1125,4.00286 -0.25,3.96799 -0.1375,-0.0349 -1.29851,-0.48368 -2.58003,-0.99738 z m -9.94413,-6.9407 c -0.29012,-4.23134 1.36917,-5.39637 3.69477,-2.59418 1.57316,1.89554 0.30503,6.59604 -1.77902,6.59418 -1.20241,-0.001 -1.71494,-1.07121 -1.91575,-4 z m -8.83671,-0.42686 c -1.03296,-2.69186 0.48965,-6.74166 2.3966,-6.37442 2.45208,0.47223 2.41814,7.13981 -0.0387,7.61296 -0.96417,0.18568 -2.0252,-0.37166 -2.35785,-1.23854 z m -6.98516,-1.33698 c -1.56364,-1.04814 -2.47615,-5.49987 -1.46329,-7.13871 1.65634,-2.68001 4.05932,-0.38754 4.05932,3.87264 0,4.01589 -0.51355,4.66199 -2.59603,3.26607 z m -9.40397,-6.23469 c 0,-3.33333 0.33333,-4 2,-4 2.05985,0 2.7087,2.98957 1.39301,6.41821 -1.24387,3.24148 -3.39301,1.70978 -3.39301,-2.41821 z m -8,-3.07332 c 0,-3.33903 0.31547,-4.01354 1.75,-3.74169 1.22302,0.23178 1.84346,1.45838 2.06037,4.07333 0.26642,3.21198 0.0187,3.74168 -1.75,3.74168 -1.74328,0 -2.06037,-0.62689 -2.06037,-4.07332 z m -7.43652,1.17603 c -0.69154,-1.11893 0.42638,-6.97841 1.45238,-7.61251 1.58249,-0.97803 3.15263,2.46617 2.49314,5.46884 -0.63705,2.90047 -2.76369,4.05591 -3.94552,2.14367 z m -9.31348,-2.76938 c -1.23137,-0.49254 -1.77884,-6.47115 -0.6921,-7.5579 0.30685,-0.30685 1.45642,-0.32294 2.5546,-0.0358 1.61415,0.42211 1.93043,1.20218 1.65087,4.07165 -0.34832,3.57519 -1.21312,4.44211 -3.51337,3.52201 z m -6.5,-2.13585 c -1.31113,-0.25783 -1.75,-1.32888 -1.75,-4.2708 0,-2.15968 0.3375,-3.91979 0.75,-3.91137 2.19393,0.0448 3.36059,1.98617 3.0692,5.10728 -0.24594,2.63436 -0.72082,3.34004 -2.0692,3.07489 z m -9.08333,-2.86415 c -0.91872,-0.91871 -0.8444,-8.33696 0.0833,-8.31802 2.4211,0.0494 3.35772,1.89359 2.71142,5.33865 -0.66458,3.54254 -1.42304,4.35109 -2.79475,2.97937 z m -7.66667,-5.77431 c 0,-3.65886 1.51198,-5.44704 3.1883,-3.77072 1.40432,1.40432 -0.0192,7.2117 -1.76776,7.2117 -0.95217,0 -1.42054,-1.13454 -1.42054,-3.44098 z m -6.56804,-0.80902 c 0.23068,-1.2375 0.45286,-3.0375 0.49373,-4 0.0409,-0.9625 0.74931,-1.75 1.57431,-1.75 1.08333,0 1.5,1.11111 1.5,4 0,3.32914 -0.33438,4 -1.99373,4 -1.52517,0 -1.89515,-0.52878 -1.57431,-2.25 z m -6.35257,-1.15435 c -1.64129,-1.97762 -0.2937,-6.78206 1.79157,-6.38736 2.17606,0.41188 2.94499,7.79171 0.81185,7.79171 -0.79086,0 -1.9624,-0.63196 -2.60342,-1.40435 z m -6.43665,-1.3647 c -0.29906,-0.48388 -0.40338,-2.1963 -0.23182,-3.80537 0.22296,-2.09128 0.85049,-2.92558 2.2005,-2.92558 2.55522,0 2.77149,6.80258 0.23182,7.29167 -0.91122,0.17549 -1.90145,-0.0768 -2.2005,-0.56072 z m -8.22702,-2.9822 c -0.708,-0.48891 -0.7905,-1.85473 -0.23775,-3.93568 0.62411,-2.34958 1.38127,-3.14665 2.88174,-3.03362 1.69581,0.12774 1.98561,0.74122 1.73776,3.67861 -0.29584,3.50595 -2.10379,4.86372 -4.38175,3.29069 z m -6.2458,-2.12257 c -1.91255,-1.21245 -1.08272,-6.53079 1.0831,-6.94154 2.14067,-0.40597 3.17901,1.95789 2.33577,5.3176 -0.66859,2.66387 -1.30306,2.96524 -3.41887,1.62394 z m -9.13763,-4.06585 c -0.78811,-1.47259 -0.79732,-2.63086 -0.0323,-4.06033 1.89755,-3.54561 5.32261,-1.70195 4.83008,2.59996 -0.40167,3.50822 -3.23953,4.37202 -4.79779,1.46037 z m 174.87652,195.48683 c 1.54521,-0.79906 3.43129,-2.93656 4.19128,-4.75 1.74791,-4.17075 1.63893,-11.50041 -0.19744,-13.27879 -1.37371,-1.33034 -28.01955,-15.51837 -29.14428,-15.51837 -0.31412,0 -0.32238,0.95123 -0.0183,2.11385 0.44808,1.71344 0.19357,2.00884 -1.34361,1.55946 -20.46122,-5.98163 -41.45497,-13.68235 -52.61317,-19.29904 -10.22379,-5.14634 -26.70456,-0.80207 -24.33074,6.4135 0.57367,1.74374 12.23677,9.64749 25.26992,17.12468 17.73114,10.17248 48.07198,21.76275 64.53863,24.65392 2.06857,0.3632 4.00763,1.05934 4.30901,1.54699 0.84853,1.37294 6.21845,1.04737 9.33875,-0.5662 z m -7.46114,-0.84085 c -2.49798,-6.44529 5.88333,-19.02963 10.30233,-15.4687 1.71885,1.38509 1.56947,7.24393 -0.27568,10.81205 -1.47155,2.84565 -2.44604,3.39624 -5.31654,3.00381 -0.73822,-0.10092 -1.94358,0.63326 -2.67858,1.63152 -1.28194,1.7411 -1.36467,1.74197 -2.03153,0.0213 z M 297.42687,635.92239 c -5.775,-5.65102 -17.25,-16.66004 -25.5,-24.46448 -16.76789,-15.86232 -16.94225,-15.89225 -13.97911,-2.39968 2.02771,9.23313 4.32306,13.26276 9.2614,16.25896 4.24255,2.57405 39.4573,20.84404 40.21771,20.86561 0.275,0.008 -4.225,-4.60938 -10,-10.26041 z M 106.08513,623.73021 c 6.51296,-0.81995 25.79174,-3.07835 42.84174,-5.01866 17.05,-1.94031 40.675,-4.67388 52.5,-6.07459 11.825,-1.40071 25.1,-2.96245 29.5,-3.47052 4.4,-0.50808 11.375,-1.36476 15.5,-1.90372 4.125,-0.53897 7.8375,-0.99384 8.25,-1.01082 0.4125,-0.017 0.75,-2.54163 0.75,-5.61034 0,-5.55913 -0.01,-5.57736 -2.75,-5.00555 -4.2368,0.88419 -46.52169,7.4869 -52.47142,8.19333 -2.90322,0.3447 -5.61608,0.8254 -6.02858,1.06822 -0.4125,0.24282 -0.75,-0.0351 -0.75,-0.61752 0,-0.58246 0.48568,-1.05902 1.07928,-1.05902 1.43433,0 60.9831,-9.1404 119.92072,-18.40714 26.125,-4.10763 49.525,-7.71199 52,-8.0097 8.40484,-1.01098 -8.02087,2.20526 -25,4.89514 -9.075,1.43768 -25.95,4.14277 -37.5,6.01131 -11.55,1.86854 -26.175,4.15811 -32.5,5.08795 -6.325,0.92983 -11.83469,1.98745 -12.24375,2.35027 -0.40906,0.36282 1.39094,2.7363 4,5.2744 4.74375,4.61473 4.74375,4.61473 9.74375,3.68748 2.75,-0.50999 21.2,-2.71325 41,-4.89614 39.56164,-4.36153 66.03197,-7.41096 104,-11.98096 13.75,-1.65502 26.125,-3.01679 27.5,-3.02618 5.29122,-0.0361 5.45209,-1.27841 1.09439,-8.45133 -4.42224,-7.27915 -4.50974,-9.68331 -0.25179,-6.91783 2.56018,1.66281 4.56136,3.21565 14.02839,10.88556 2.90368,2.35247 4.74999,3.22782 5.5,2.6076 0.62095,-0.5135 9.22901,-1.88308 19.12901,-3.04352 9.9,-1.16044 23.625,-2.77533 30.5,-3.58864 6.875,-0.81332 22.4,-2.60216 34.5,-3.97521 38.97477,-4.42266 59.40751,-7.07724 60.14405,-7.81378 1.64638,-1.64637 -13.51967,-14.66675 -22.22211,-19.07816 -3.21294,-1.62869 -5.27761,-2.1302 -6.34275,-1.54066 -2.38339,1.31917 -73.29995,12.35595 -75.23924,11.70952 -0.63606,-0.21202 2.62724,-0.95205 7.25179,-1.64451 7.87434,-1.17908 42.75144,-6.73048 58.40826,-9.29686 10.12055,-1.65891 10.89337,-2.38593 4.4644,-4.19987 -21.02061,-5.931 -41.65185,-11.51942 -61.4644,-16.64898 -22.02458,-5.70225 -38.9491,-10.15455 -79.5,-20.9139 -10.175,-2.69973 -20.23674,-5.23055 -22.35942,-5.62405 -3.85943,-0.71545 -3.85943,-0.71545 -2.26612,1.71625 0.87632,1.33743 1.77208,4.41643 1.99059,6.84221 0.2185,2.42578 0.78825,4.50565 1.26611,4.62194 0.47786,0.11629 5.47607,1.60808 11.10712,3.31508 10.23828,3.10364 10.23828,3.10364 -3.5,15.41584 -18.36404,16.45779 -17.53106,15.12716 -10.79821,17.2495 5.56695,1.75483 5.56695,1.75483 8.31344,-0.74822 1.51057,-1.37667 6.68399,-6.03235 11.49649,-10.34596 4.8125,-4.3136 8.75,-8.15157 8.75,-8.52881 0,-0.37724 -1.80459,-1.49965 -4.0102,-2.49424 -2.2056,-0.99459 -3.86878,-1.94976 -3.69594,-2.12259 0.521,-0.521 10.70614,2.95817 10.70614,3.65713 0,0.35651 -5.84723,6.08827 -12.99385,12.73723 -12.99384,12.08904 -12.99384,12.08904 -19.23521,9.64306 -6.09686,-2.38934 -6.41537,-2.41195 -13.75616,-0.97662 -52.46631,10.25866 -65.28938,12.62513 -65.77575,12.13875 -0.3148,-0.3148 -0.1198,-0.57236 0.43333,-0.57236 2.01194,0 64.88346,-13.02994 66.80892,-13.84595 1.65701,-0.70224 1.11446,-1.12759 -3.31478,-2.59875 -2.91284,-0.96749 -5.09444,-1.9607 -4.848,-2.20713 0.24643,-0.24644 3.22019,0.4858 6.60835,1.62719 3.38816,1.14139 6.73676,1.72636 7.44132,1.29995 2.20566,-1.33492 27.63183,-24.62871 27.63183,-25.31447 0,-0.65151 -16.72583,-5.96084 -18.77825,-5.96084 -0.59783,0 -1.35209,0.83532 -1.67613,1.85627 -0.32404,1.02094 -6.58615,7.26707 -13.9158,13.88028 -13.32665,12.02401 -13.32665,12.02401 -30.22824,15.74225 -29.90929,6.57984 -37.53309,8.28403 -57.79201,12.91853 -10.93974,2.50261 -20.11593,4.7757 -20.39154,5.0513 -1.19448,1.19449 9.20681,4.57114 12.66317,4.11095 1.99034,-0.26501 2.8313,-0.24133 1.8688,0.0526 -2.64648,0.80823 -2.1115,2.00921 1.5,3.3674 1.7875,0.67223 4.30507,1.72565 5.59461,2.34093 2.3446,1.11869 2.3446,1.11869 -0.5,1.90202 -1.56454,0.43083 -20.16961,4.17227 -41.34461,8.31429 -21.175,4.14203 -41.57159,8.18594 -45.32575,8.98647 -6.82574,1.4555 -6.82574,1.4555 -16.77084,-3.37851 -11.31465,-5.4997 -1.18666,-6.91644 -84.90341,11.87657 -21.724998,4.87689 -43.099998,9.60213 -47.499998,10.50053 -4.4,0.89839 -8.358257,1.97925 -8.796128,2.4019 -0.939198,0.90655 3.956235,4.69899 10.308286,7.98571 4.512158,2.33471 4.512158,2.33471 31,-1.88052 14.56831,-2.31837 33.23784,-5.26306 41.48784,-6.54375 8.25,-1.28068 21.02813,-3.26378 28.39584,-4.40688 13.69467,-2.12472 16.79605,-2.43692 15.96636,-1.60723 -0.25912,0.25912 -6.52162,1.39473 -13.91666,2.52358 -7.39505,1.12885 -16.14554,2.48721 -19.44554,3.01859 -3.3,0.53138 -16.35,2.57004 -29,4.53036 -12.65,1.96032 -27.9162,4.43994 -33.92489,5.51028 -6.00869,1.07033 -11.40869,1.96201 -12,1.9815 -0.591309,0.0195 0.04989,0.67854 1.424892,1.46456 3.202121,1.8305 6.180806,1.83182 20.658258,0.009 z m 267.34174,-48.12455 c 0.825,-0.21084 8.475,-1.47013 17,-2.79842 8.525,-1.32829 26.975,-4.23886 41,-6.46794 69.59627,-11.06134 76.21584,-12.02624 72.5,-10.56793 -0.91397,0.3587 -63.90034,10.39486 -109.94549,17.51857 -16.72434,2.58744 -25.47544,3.57337 -20.55451,2.31572 z m -65.5,-12.38464 c 1.65,-0.41985 3.9,-0.77176 5,-0.78201 1.5672,-0.0146 1.45899,0.15463 -0.5,0.78201 -1.375,0.44035 -3.625,0.79225 -5,0.78201 -2.2456,-0.0167 -2.19472,-0.0963 0.5,-0.78201 z m 10,-2 c 1.65,-0.41985 3.9,-0.77176 5,-0.78201 1.5672,-0.0146 1.45899,0.15463 -0.5,0.78201 -1.375,0.44035 -3.625,0.79225 -5,0.78201 -2.2456,-0.0167 -2.19472,-0.0963 0.5,-0.78201 z m 8.25,-1.66228 c 0.6875,-0.27741 1.8125,-0.27741 2.5,0 0.6875,0.27741 0.125,0.50439 -1.25,0.50439 -1.375,0 -1.9375,-0.22698 -1.25,-0.50439 z m 182.25,61.30594 c 0,-0.19598 -6.78812,-5.70848 -15.08472,-12.25 -8.29659,-6.54151 -17.06778,-13.46866 -19.49152,-15.39366 -14.94435,-11.86918 -28.61619,-22.11036 -27.9088,-20.90565 0.45397,0.77311 2.15923,3.37453 3.78946,5.78094 1.63024,2.40642 3.82048,7.80642 4.86719,12 3.10704,12.44811 3.13684,12.49014 11.6479,16.42935 17.98535,8.32423 42.18049,16.54923 42.18049,14.33902 z M 233.85759,586.17974 c 8.8381,-1.67271 22.59428,-4.35697 30.56928,-5.96502 12.58061,-2.53672 41.21469,-7.90271 42.91277,-8.0418 0.32297,-0.0265 -1.92551,-1.34586 -4.99663,-2.93202 -5.58386,-2.88392 -5.58386,-2.88392 -17,-0.38145 -6.27888,1.37636 -17.94114,3.7624 -25.91614,5.30231 -28.15862,5.43721 -51,10.42165 -51,11.12921 0,0.71442 6.66534,3.78078 8.43072,3.87852 0.51189,0.0283 8.16189,-1.31705 17,-2.98975 z m -0.70773,-7.98728 c 14.17736,-2.76571 28.70201,-5.67015 32.27701,-6.4543 3.575,-0.78416 11.3375,-2.40496 17.25,-3.60179 5.9125,-1.19683 10.75,-2.50626 10.75,-2.90985 0,-0.40358 -1.96621,-1.48469 -4.36935,-2.40246 -4.22873,-1.61496 -4.71955,-1.58503 -15.25,0.92995 -10.30592,2.46135 -36.00086,8.3614 -61.38065,14.09416 -6.325,1.42868 -11.65756,2.7421 -11.85014,2.9187 -1.03212,0.94651 1.35276,2.45415 3.88215,2.45415 1.60268,0 14.51363,-2.26285 28.69098,-5.02856 z M 638.4267,501.47102 c -10e-5,-0.4125 -0.69381,-4.35 -1.54158,-8.75 -0.84777,-4.4 -3.0942,-16.17405 -4.99206,-26.16456 -5.94973,-31.3199 -4.55272,-27.86716 -12.28524,-30.36329 -3.67452,-1.18617 -7.35595,-2.55147 -8.18095,-3.034 -2.84698,-1.66516 0.72765,-0.93044 7.59887,1.56185 3.79086,1.375 7.621,2.5 8.51142,2.5 0.91195,0 3.93556,3.47546 6.92368,7.95836 5.30473,7.95837 5.30473,7.95837 11.88538,9.42072 10.16235,2.25827 27.08751,5.41014 32.08065,5.97419 4.08432,0.46138 4.32069,0.37617 2.55887,-0.92247 -1.06762,-0.78694 -2.29002,-1.4308 -2.71644,-1.4308 -0.42642,0 -11.40569,-5.17312 -24.39836,-11.49581 -24.66005,-12.00045 -31.94334,-14.58698 -41.9498,-14.89772 -3.30315,-0.10258 -6.57055,-0.53558 -7.26089,-0.96223 -0.98481,-0.60865 -1.14333,1.12305 -0.73595,8.04001 0.28557,4.84866 0.29687,8.36575 0.0251,7.81575 -0.51151,-1.03525 -11.74703,-110.00955 -17.47586,-169.5 -3.06858,-31.86532 -1.87144,-28.35977 -10.56626,-30.94097 -4.06249,-1.20602 -8.81152,-2.05017 -10.55342,-1.8759 -3.57213,0.3574 -2.71009,-2.12322 -10.36169,29.81687 -2.04226,8.525 -4.62167,19.24576 -5.73201,23.8239 -1.11035,4.57815 -1.86457,8.46488 -1.67605,8.63719 0.18852,0.1723 2.59276,0.9422 5.34276,1.71089 4.66507,1.30399 4.98324,1.59623 4.74983,4.36281 -1.73161,20.52458 -4.33212,53.54746 -4.67041,59.30778 -0.23717,4.03841 -0.58226,7.49361 -0.76687,7.67821 -0.28426,0.28427 -4.31116,-0.54667 -19.45766,-4.01503 -2.25413,-0.51617 -2.34711,-0.20809 -10.75072,35.62422 -1.32037,5.62997 -1.32037,5.62997 12.28773,8.87189 7.48445,1.78306 14.38742,3.64852 15.33993,4.14549 1.44874,0.75587 -0.49603,2.94261 -11.89783,13.37811 -7.49631,6.861 -14.32111,12.47454 -15.16623,12.47454 -0.84511,0 -4.18225,-0.74234 -7.41588,-1.64965 -5.87932,-1.64966 -5.87932,-1.64966 -10.75781,3.15548 -4.8785,4.80514 -4.8785,4.80514 48.75069,22.64965 29.49605,9.81449 53.96653,17.84452 54.37885,17.84452 0.41231,0 0.93116,-1.4625 1.15298,-3.25 0.40333,-3.25 0.40333,-3.25 0.56336,0.41667 0.16004,3.66666 0.16004,3.66666 13.41004,8.17105 13.75282,4.67532 15.75012,5.17145 15.74983,3.91228 z m -30.74765,-19.75 c 0.0111,-2.2 0.21589,-2.98225 0.45508,-1.73834 0.23919,1.24391 0.23011,3.04391 -0.0202,4 -0.25029,0.95609 -0.446,-0.0617 -0.4349,-2.26166 z m -0.95252,-9.5 c 0,-3.025 0.18747,-4.2625 0.41659,-2.75 0.22913,1.5125 0.22913,3.9875 0,5.5 -0.22912,1.5125 -0.41659,0.275 -0.41659,-2.75 z m -1.77334,-14.52632 c -0.39473,-4.73861 -0.50453,-8.82881 -0.244,-9.08933 0.26053,-0.26053 0.79664,3.40336 1.19136,8.14197 0.39473,4.73861 0.50453,8.82881 0.244,9.08933 -0.26053,0.26053 -0.79664,-3.40336 -1.19136,-8.14197 z m 110.3954,30.37997 c 2.53252,-2.71834 3.68408,-9.85318 2.07544,-12.85896 -0.76541,-1.43018 -5.92763,-4.47446 -14.34639,-8.4604 -15.98294,-7.56727 -16.70595,-7.84167 -16.03167,-6.08451 0.28449,0.74135 0.13019,1.58713 -0.34288,1.8795 -1.33054,0.82233 -20.54385,-2.09401 -32.77622,-4.97501 -14.78964,-3.4833 -15.59122,-3.4853 -16.75655,-0.0418 -1.33415,3.94238 -0.0338,11.6676 2.07656,12.33642 0.92399,0.29283 2.57999,0.94616 3.67999,1.45184 2.07473,0.95377 10.53916,3.83381 26,8.84656 11.00616,3.56844 30.74261,8.74711 35.5,9.31489 7.53066,0.89875 8.94166,0.71677 10.92172,-1.40857 z m -7.92172,-2.89349 c 0,-2.66245 3.36032,-10.96016 4.43854,-10.96016 0.21884,0 1.05606,-0.25256 1.86049,-0.56126 0.98561,-0.37821 1.81385,0.44632 2.53959,2.52818 1.4057,4.03239 0.55603,6.00415 -2.88379,6.69211 -1.86176,0.37236 -2.99267,1.35559 -3.39278,2.94975 -0.8527,3.39745 -2.56205,2.9647 -2.56205,-0.64862 z M 500.19011,453.19261 c 1.41829,-1.11562 7.33149,-6.40312 13.14045,-11.75 5.80896,-5.34687 12.70702,-11.69567 15.32903,-14.10843 2.622,-2.41276 4.76728,-4.71442 4.76728,-5.1148 0,-0.40037 -3.16948,-1.49829 -7.04328,-2.43982 -7.04329,-1.71187 -7.04329,-1.71187 -19.25,9.0617 -18.01582,15.90066 -23.20672,20.77544 -23.20672,21.79344 0,1.00031 8.88861,4.38456 11.84227,4.50882 1.01325,0.0426 3.00269,-0.83528 4.42097,-1.95091 z m 32.78697,-13.05905 c 13.78759,-12.59264 14.9328,-13.76286 14.19286,-14.5028 -1.01593,-1.01593 -11.60809,-3.28452 -11.94363,-2.55805 -0.16469,0.35657 -2.99944,3.09634 -6.29944,6.08837 -12.44722,11.28561 -17.58352,16.30975 -17.13371,16.75956 0.38175,0.38176 8.74935,2.89657 10.68392,3.21096 0.30262,0.0492 5.02762,-3.99994 10.5,-8.99804 z m -397.22754,-6.45903 c 13.84753,-1.40442 26.07733,-2.75042 27.17733,-2.99111 1.1,-0.24069 19.39263,-2.24547 40.65029,-4.45507 21.25767,-2.20959 40.07865,-4.30312 41.82441,-4.65227 4.90271,-0.98054 4.19704,-1.45854 -23.67769,-16.03845 -14.20299,-7.42889 -14.20299,-7.42889 -26.5,-3.4604 -10.71412,3.45766 -83.74285,25.58635 -94.04701,28.49751 -2.062498,0.58271 -3.749998,1.34046 -3.749998,1.68389 0,1.42533 9.746498,5.04165 11.822668,4.38666 0.72747,-0.2295 12.65247,-1.56634 26.5,-2.97076 z m -10.32267,-11.91014 c 23.90001,-7.05801 75.22211,-22.48776 79.5,-23.90132 0.55,-0.18174 -1.40434,-1.55433 -4.34299,-3.0502 -4.66892,-2.37666 -5.48895,-2.52982 -6.5,-1.21401 -0.63635,0.82817 -4.98201,2.62843 -9.65701,4.00056 -9.18828,2.69682 -92.195006,30.66823 -92.971038,31.32917 -0.731616,0.62311 2.346559,2.31647 3.47104,1.90949 0.55,-0.19906 14.274998,-4.28222 30.499998,-9.07369 z m 498.33396,1.70663 c -0.78416,-4.2625 -4.13835,-21.7 -7.45374,-38.75 -3.3154,-17.05 -6.93876,-35.79325 -8.05193,-41.65168 -2.02394,-10.65167 -2.02394,-10.65167 -7.77878,-12.75 -7.49348,-2.73226 -8.10424,-2.67921 -7.5037,0.65168 0.42488,2.35663 4.96813,46.63953 8.48982,82.75 1.58462,16.24828 1.07397,15.15439 7.19454,15.41147 2.8984,0.12173 7.06983,0.5897 9.26983,1.03993 7.7881,1.59384 7.43471,1.99977 5.83396,-6.7014 z M 320.24382,406.47715 c -11.69476,-13.65416 -23.12768,-26.94082 -27.32555,-31.75613 -5.75249,-6.59859 -19.75707,-22.96563 -39.29296,-45.92136 -6.98414,-8.20674 -14.72344,-17.24506 -17.19844,-20.08515 -2.475,-2.84008 -8.1,-9.37984 -12.5,-14.53278 -7.66646,-8.97836 -14.55623,-16.67517 -21.27016,-23.76163 -1.72006,-1.8155 -3.38,-4.09683 -3.68875,-5.06962 -0.87423,-2.75444 -10.66491,-6.8183 -25.37186,-10.5312 -7.17719,-1.81195 -10.16923,-2.01277 -10.16923,-0.68255 0,0.50364 1.62131,4.51327 3.60291,8.91028 3.68399,8.17448 4.76961,9.12971 10.4107,9.16035 2.14387,0.0117 3.53429,1.74206 9.45234,11.76366 3.81631,6.4625 12.76025,21.425 19.87544,33.25 7.11519,11.825 20.56557,34.19261 29.88972,49.7058 16.953,28.20581 16.953,28.20581 22.11095,29.65571 13.28305,3.73387 61.42814,12.96698 62.56848,11.99917 0.22579,-0.19163 -0.26632,-1.13868 -1.09359,-2.10455 z m -69.81695,-12.62254 c 0,-1.64583 -69.91587,-117.92286 -71.7838,-119.38359 -0.87915,-0.6875 -2.83769,-1.25 -4.3523,-1.25 -3.0773,0 -3.3977,-1.11625 4.87964,17 1.63342,3.575 5.13485,11.45 7.78095,17.5 2.6461,6.05 7.14611,15.95 10.00002,22 5.83423,12.36801 6.15772,13.07151 17.46839,37.99002 4.49119,9.89451 8.69259,18.33334 9.33645,18.75296 1.11099,0.72405 17.91662,6.07713 22.17065,7.06199 2.75299,0.63735 4.5,0.76493 4.5,0.32862 z m 300.39842,-18.88359 c 0.24009,-1.2375 1.38867,-13.95 2.5524,-28.25 1.16373,-14.3 2.37772,-28.3625 2.69775,-31.25 0.44899,-4.05105 0.2701,-5.25251 -0.78335,-5.26101 -0.75087,-0.006 -2.97615,-0.2775 -4.94506,-0.60322 -3.57983,-0.59223 -3.57983,-0.59223 -6.87173,13.261 -1.81054,7.61928 -4.35396,17.90323 -5.65205,22.85323 -3.82793,14.59706 -6.48058,26.74913 -5.95397,27.27575 0.59585,0.59585 14.36304,3.97464 16.78854,4.1203 1.04457,0.0627 1.90404,-0.78825 2.16747,-2.14605 z m 139.40327,-4.4555 c 0.62334,-2.03104 1.03547,-3.79015 0.91583,-3.90914 -0.11964,-0.11898 -1.68002,0.39891 -3.46752,1.15088 -3.33934,1.40479 -4.46958,4.72796 -2,5.88043 1,0.46666 1,0.7 0,1.16666 -0.6875,0.32084 -1.25,1.00621 -1.25,1.52306 0,2.30063 4.78215,-2.48993 5.80169,-5.81189 z m -8.30169,0.4555 c 0,-3.97341 0.57834,-6.02066 2.37842,-8.41934 2.5802,-3.43821 4.27333,-3.44459 5.92712,-0.0223 0.65552,1.35651 1.07277,1.62007 1.09498,0.69166 0.0914,-3.82016 -2.33003,-5.29719 -17.19039,-10.48605 -10.82812,-3.78091 -15.76895,-4.38155 -7.26171,-0.88279 5.17404,2.12792 5.82666,3.36884 1.77172,3.36884 -5.98833,0 -28.21529,-3.2068 -39.00776,-5.62785 -6.25227,-1.40256 -11.4765,-2.39756 -11.6094,-2.21113 -4.82907,6.77429 -5.3442,13.22647 -1.18229,14.80883 9.2267,3.50798 47.71403,11.98372 60.57931,13.34086 1.925,0.20307 3.725,0.44123 4,0.52925 0.275,0.088 0.5,-2.20246 0.5,-5.08996 z m -19.53571,-19.1746 c -0.80536,-0.78353 -5.28929,-2.99991 -9.96429,-4.9253 -4.675,-1.92538 -12.55,-5.3831 -17.5,-7.68383 -4.95,-2.30073 -12.15,-5.28065 -16,-6.62203 -7.40745,-2.58085 -19.70258,-5.47499 -20.38027,-4.79731 -0.39223,0.39224 8.38328,4.43335 9.71318,4.47291 0.3669,0.0109 2.01,2.28151 3.65134,5.04576 4.60599,7.75715 6.07455,8.69789 17.06736,10.93324 12.39215,2.5199 26.84694,4.77665 31.41268,4.9043 3.01569,0.0843 3.27467,-0.0876 2,-1.32774 z M 268.4942,327.36938 c -1.6817,-7.67774 -3.33109,-14.67214 -3.66531,-15.54309 -0.33422,-0.87096 -2.4739,-2.06725 -4.75484,-2.65843 -2.28095,-0.59118 -5.69688,-1.48387 -7.59095,-1.98375 -1.89408,-0.49988 -3.53649,-0.80858 -3.64982,-0.68598 -0.11332,0.12259 -0.36363,2.74234 -0.55623,5.82167 -0.3414,5.45833 -0.2249,5.7468 4.64411,11.5 2.74686,3.24567 5.82768,6.80122 6.84627,7.90122 1.01859,1.1 3.94616,4.65207 6.50571,7.89349 6.00423,7.60377 6.25991,6.19413 2.22106,-12.24513 z"
       id="path3017"
       inkscape:connector-curvature="0" />
  </g>
</svg>
